<svg xmlns="http://www.w3.org/2000/svg" xmlns:xlink="http://www.w3.org/1999/xlink" width="1920" height="1080" viewBox="0 0 1920 1080">
  <defs>
    <style>
      .cls-1 {
        clip-path: url(#clip-Web_1920_1);
      }

      .cls-2 {
        fill: #cee6ff;
      }

      .cls-19, .cls-2, .cls-4, .cls-5, .cls-6 {
        stroke: #707070;
      }

      .cls-3 {
        fill: url(#pattern);
      }

      .cls-4 {
        fill: #608ebd;
      }

      .cls-16, .cls-5 {
        fill: #fff;
      }

      .cls-6, .cls-7 {
        fill: #84b5cf;
      }

      .cls-8 {
        fill: url(#linear-gradient);
      }

      .cls-9 {
        fill: url(#linear-gradient-3);
      }

      .cls-10 {
        fill: url(#linear-gradient-4);
      }

      .cls-11 {
        fill: url(#linear-gradient-5);
      }

      .cls-12 {
        fill: url(#linear-gradient-8);
      }

      .cls-13 {
        fill: url(#pattern-2);
      }

      .cls-14, .cls-17, .cls-24 {
        fill: #707070;
      }

      .cls-14, .cls-18 {
        font-size: 25px;
      }

      .cls-14, .cls-17 {
        font-family: SegoeUI-Bold, Segoe UI;
        font-weight: 700;
      }

      .cls-15 {
        fill: url(#linear-gradient-9);
      }

      .cls-16 {
        opacity: 0.16;
      }

      .cls-17 {
        font-size: 20px;
      }

      .cls-19, .cls-23 {
        fill: none;
      }

      .cls-20 {
        fill: #909292;
        opacity: 0.17;
      }

      .cls-21 {
        fill: url(#pattern-3);
      }

      .cls-22, .cls-24 {
        stroke: none;
      }

      .cls-25 {
        fill: #f6feff;
      }
    </style>
    <pattern id="pattern" preserveAspectRatio="none" width="100%" height="100%" viewBox="0 0 543 206">
      <image width="543" height="206" xlink:href="../../imgs/Robog%C3%B6r-Logo-1.png"/>
    </pattern>
    <linearGradient id="linear-gradient" x1="0.5" x2="0.5" y2="1" gradientUnits="objectBoundingBox">
      <stop offset="0" stop-color="#b5251b"/>
      <stop offset="1" stop-color="#59201c"/>
    </linearGradient>
    <linearGradient id="linear-gradient-3" x1="0.5" x2="0.5" y2="1" gradientUnits="objectBoundingBox">
      <stop offset="0" stop-color="#c41d0c"/>
      <stop offset="1" stop-color="#582621"/>
    </linearGradient>
    <linearGradient id="linear-gradient-4" x1="0.5" x2="0.5" y2="1" gradientUnits="objectBoundingBox">
      <stop offset="0" stop-color="#b11104"/>
      <stop offset="1" stop-color="#58221d"/>
    </linearGradient>
    <linearGradient id="linear-gradient-5" x1="0.5" x2="0.5" y2="1" gradientUnits="objectBoundingBox">
      <stop offset="0" stop-color="#9e200c"/>
      <stop offset="1" stop-color="#4d1910"/>
    </linearGradient>
    <linearGradient id="linear-gradient-8" x1="0.5" x2="0.5" y2="1" gradientUnits="objectBoundingBox">
      <stop offset="0" stop-color="#8d1d0e"/>
      <stop offset="1" stop-color="#5b2b25"/>
    </linearGradient>
    <pattern id="pattern-2" preserveAspectRatio="none" width="100%" height="100%" viewBox="0 0 640 640">
      <image width="640" height="640" xlink:href="../../imgs/pp.jpeg"/>
    </pattern>
    <linearGradient id="linear-gradient-9" x1="0.5" x2="0.5" y2="1" gradientUnits="objectBoundingBox">
      <stop offset="0" stop-color="#910a00"/>
      <stop offset="1" stop-color="#57201c"/>
    </linearGradient>
    <pattern id="pattern-3" preserveAspectRatio="none" width="100%" height="100%" viewBox="0 0 1428 714">
      <image width="1428" height="714" xlink:href="../../imgs/download%20(2).png"/>
    </pattern>
    <clipPath id="clip-Web_1920_1">
      <rect width="1920" height="1080"/>
    </clipPath>
  </defs>
  <g id="Web_1920_1" data-name="Web 1920 – 1" class="cls-1">
    <rect class="cls-25" width="1920" height="1080"/>
    <g id="Rectangle_6" data-name="Rectangle 6" class="cls-2" transform="translate(102)">
      <rect class="cls-22" width="1818" height="103"/>
      <rect class="cls-23" x="0.5" y="0.5" width="1817" height="102"/>
    </g>
    <rect id="Robogör-Logo-1" class="cls-3" width="197" height="75" transform="translate(1678 14)"/>
    <g id="Rectangle_7" data-name="Rectangle 7" class="cls-4">
      <rect class="cls-22" width="110" height="1080"/>
      <rect class="cls-23" x="0.5" y="0.5" width="109" height="1079"/>
    </g>
    <g id="Rectangle_9" data-name="Rectangle 9" class="cls-5" transform="translate(503 125)">
      <rect class="cls-22" width="879" height="370" rx="24"/>
      <rect class="cls-23" x="0.5" y="0.5" width="878" height="369" rx="23.5"/>
    </g>
    <g id="Ellipse_1" data-name="Ellipse 1" class="cls-5" transform="translate(12 13)">
      <ellipse class="cls-22" cx="43" cy="42" rx="43" ry="42"/>
      <ellipse class="cls-23" cx="43" cy="42" rx="42.5" ry="41.5"/>
    </g>
    <g id="Rectangle_10" data-name="Rectangle 10" class="cls-5" transform="translate(1416 125)">
      <rect class="cls-22" width="459" height="934" rx="28"/>
      <rect class="cls-23" x="0.5" y="0.5" width="458" height="933" rx="27.5"/>
    </g>
    <g id="Rectangle_11" data-name="Rectangle 11" class="cls-5" transform="translate(502 540)">
      <rect class="cls-22" width="880" height="519" rx="21"/>
      <rect class="cls-23" x="0.5" y="0.5" width="879" height="518" rx="20.5"/>
    </g>
    <g id="Rectangle_12" data-name="Rectangle 12" class="cls-6" transform="translate(16 996)">
      <rect class="cls-22" width="74" height="73" rx="26"/>
      <rect class="cls-23" x="0.5" y="0.5" width="73" height="72" rx="25.5"/>
    </g>
    <g id="Rectangle_13" data-name="Rectangle 13" class="cls-6" transform="translate(19 670)">
      <rect class="cls-22" width="74" height="73" rx="26"/>
      <rect class="cls-23" x="0.5" y="0.5" width="73" height="72" rx="25.5"/>
    </g>
    <g id="Path_6" data-name="Path 6" class="cls-7" transform="translate(19 587)">
      <path class="cls-22" d="M 48 72.5 L 26 72.5 C 22.55730056762695 72.5 19.21784973144531 71.82585144042969 16.07439994812012 70.49629211425781 C 13.03794002532959 69.21196746826172 10.31081962585449 67.37326049804688 7.968780040740967 65.03122711181641 C 5.626739978790283 62.68918991088867 3.788029909133911 59.96205902099609 2.503710031509399 56.92559814453125 C 1.174149990081787 53.78215026855469 0.5 50.44269943237305 0.5 47 L 0.5 26 C 0.5 22.55730056762695 1.174149990081787 19.21784973144531 2.503710031509399 16.07439994812012 C 3.788029909133911 13.03794002532959 5.626739978790283 10.31081962585449 7.968780040740967 7.968780040740967 C 10.31081962585449 5.626739978790283 13.03794002532959 3.788029909133911 16.07439994812012 2.503710031509399 C 19.21784973144531 1.174149990081787 22.55730056762695 0.5 26 0.5 L 48 0.5 C 51.44269943237305 0.5 54.78215026855469 1.174149990081787 57.92559814453125 2.503710031509399 C 60.96205902099609 3.788029909133911 63.68918991088867 5.626739978790283 66.03122711181641 7.968780040740967 C 68.37326049804688 10.31081962585449 70.21196746826172 13.03794002532959 71.49629211425781 16.07439994812012 C 72.82585144042969 19.21784973144531 73.5 22.55730056762695 73.5 26 L 73.5 47 C 73.5 50.44269943237305 72.82585144042969 53.78215026855469 71.49629211425781 56.92559814453125 C 70.21198272705078 59.96205902099609 68.37326049804688 62.68918991088867 66.03122711181641 65.03122711181641 C 63.68918991088867 67.37326049804688 60.96205902099609 69.21198272705078 57.92559814453125 70.49629211425781 C 54.78215026855469 71.82585144042969 51.44269943237305 72.5 48 72.5 Z"/>
      <path class="cls-24" d="M 26 1 C 22.62458038330078 1 19.35065841674805 1.660858154296875 16.26918029785156 2.964210510253906 C 13.29230880737305 4.223320007324219 10.61861038208008 6.026046752929688 8.32232666015625 8.32232666015625 C 6.026046752929688 10.61861038208008 4.223320007324219 13.29230880737305 2.964210510253906 16.26918029785156 C 1.660858154296875 19.35065841674805 1 22.62458038330078 1 26 L 1 47 C 1 50.37541961669922 1.660858154296875 53.64933776855469 2.964210510253906 56.73081970214844 C 4.223320007324219 59.70767974853516 6.026046752929688 62.38138961791992 8.32232666015625 64.67767333984375 C 10.61861038208008 66.97395324707031 13.29230880737305 68.77667999267578 16.26918029785156 70.03578948974609 C 19.35065841674805 71.33914184570313 22.62458038330078 72 26 72 L 48 72 C 51.37541961669922 72 54.64933776855469 71.33914184570313 57.73081970214844 70.03578948974609 C 60.70767974853516 68.77667999267578 63.38138961791992 66.97395324707031 65.67767333984375 64.67767333984375 C 67.97395324707031 62.38138961791992 69.77667999267578 59.70767974853516 71.03578948974609 56.73081970214844 C 72.33914184570313 53.64933776855469 73 50.37541961669922 73 47 L 73 26 C 73 22.62458038330078 72.33914184570313 19.35065841674805 71.03578948974609 16.26918029785156 C 69.77667999267578 13.29230880737305 67.97395324707031 10.61861038208008 65.67767333984375 8.32232666015625 C 63.38138961791992 6.026046752929688 60.70767974853516 4.223320007324219 57.73081970214844 2.964210510253906 C 54.64933776855469 1.660858154296875 51.37541961669922 1 48 1 L 26 1 M 26 0 L 48 0 C 62.35939788818359 0 74 11.64059066772461 74 26 L 74 47 C 74 61.35939788818359 62.35939788818359 73 48 73 L 26 73 C 11.64059066772461 73 0 61.35939788818359 0 47 L 0 26 C 0 11.64059066772461 11.64059066772461 0 26 0 Z"/>
    </g>
    <g id="Rectangle_15" data-name="Rectangle 15" class="cls-6" transform="translate(19 337)">
      <rect class="cls-22" width="74" height="73" rx="26"/>
      <rect class="cls-23" x="0.5" y="0.5" width="73" height="72" rx="25.5"/>
    </g>
    <g id="Rectangle_16" data-name="Rectangle 16" class="cls-6" transform="translate(19 420)">
      <rect class="cls-22" width="74" height="73" rx="26"/>
      <rect class="cls-23" x="0.5" y="0.5" width="73" height="72" rx="25.5"/>
    </g>
    <g id="Rectangle_17" data-name="Rectangle 17" class="cls-6" transform="translate(19 504)">
      <rect class="cls-22" width="74" height="73" rx="26"/>
      <rect class="cls-23" x="0.5" y="0.5" width="73" height="72" rx="25.5"/>
    </g>
    <g id="graph" transform="translate(185 534.724)">
      <path id="Path_1" data-name="Path 1" class="cls-8" d="M41.941,36.125H5.354V.863a.893.893,0,0,0-1.785,0V36.125H.892a.861.861,0,1,0,0,1.72H3.57v2.58a.893.893,0,0,0,1.785,0v-2.58H41.941a.861.861,0,1,0,0-1.72Z" transform="translate(-148.443 -97.518)"/>
      <path id="Path_2" data-name="Path 2" class="cls-8" d="M86.21,87.236a.788.788,0,0,1-.861-.685.6.6,0,0,1,.189-.426l6.9-6.836a.95.95,0,0,1,.625-.257.981.981,0,0,1,.657.2l2.669,2.116L101,75.264a.916.916,0,0,1,.69-.331,1.02,1.02,0,0,1,.731.256l2.308,2.287L107.8,65.909a.882.882,0,0,1,1.022-.528.948.948,0,0,1,.432.186l4.472,3.544,4.579-4.842a1.019,1.019,0,0,1,1.208-.138.6.6,0,0,1,.174.957h0l-5.176,5.468a1.019,1.019,0,0,1-1.208.137.835.835,0,0,1-.091-.063l-4.049-3.21-3.123,11.757a.881.881,0,0,1-1.022.528.919.919,0,0,1-.5-.242l-2.676-2.649L97.3,82.806a1,1,0,0,1-1.182.239.866.866,0,0,1-.167-.1l-2.76-2.187L86.885,86.98A.964.964,0,0,1,86.21,87.236Z" transform="translate(-227.218 -150.448)"/>
    </g>
    <path id="location" class="cls-9" d="M38.214,9.773a.639.639,0,0,1,.077-.947.763.763,0,0,1,1.02.072,12.619,12.619,0,0,1,1.281,1.633.645.645,0,0,1-.24.923.756.756,0,0,1-.994-.223A11.308,11.308,0,0,0,38.214,9.773ZM29.13,11.344a5.9,5.9,0,0,1,6.11,5.671,5.9,5.9,0,0,1-6.109,5.671,5.9,5.9,0,0,1-6.109-5.671,5.909,5.909,0,0,1,6.109-5.671Zm0,1.343a4.5,4.5,0,0,0-4.663,4.328,4.5,4.5,0,0,0,4.662,4.328,4.5,4.5,0,0,0,4.662-4.328,4.509,4.509,0,0,0-4.662-4.328ZM7.277,44.649a.774.774,0,0,0,.554-.014.694.694,0,0,0,.38-.374l.661-1.612a.659.659,0,0,0-.423-.853.743.743,0,0,0-.928.374l-.661,1.612a.627.627,0,0,0,.015.514.7.7,0,0,0,.4.353Zm46.3,5.242a.742.742,0,0,1-.6.29H5.28a.74.74,0,0,1-.6-.29.63.63,0,0,1-.08-.62l1.045-2.54a.741.741,0,0,1,.934-.388A.658.658,0,0,1,7,47.209l-.669,1.629h8.6l8.533-2.818L15.016,35.826h-3.34l-1.52,3.7a.724.724,0,0,1-.674.432.741.741,0,0,1-.6-.291.631.631,0,0,1-.08-.62l1.695-4.13a.724.724,0,0,1,.676-.432H22.338c-.068-.1-.136-.2-.2-.307-4.294-6.6-6.455-12.376-6.424-17.165a12.381,12.381,0,0,1,7.234-11.05,14.3,14.3,0,0,1,13.9.857.642.642,0,0,1,.176.936.76.76,0,0,1-1.008.163,12.76,12.76,0,0,0-12.4-.763,11.046,11.046,0,0,0-6.452,9.862c-.062,9.548,9.545,21.31,11.974,24.131,2.428-2.82,12.036-14.586,11.974-24.125a10.382,10.382,0,0,0-.506-3.21.665.665,0,0,1,.485-.837.734.734,0,0,1,.9.45,11.633,11.633,0,0,1,.567,3.593c.031,4.785-2.13,10.56-6.425,17.16-.068.1-.136.2-.2.307H47.084a.724.724,0,0,1,.676.432l5.9,14.355a.633.633,0,0,1-.08.621ZM24.9,45.547l22.61-7.466-.926-2.255H35.015a71.737,71.737,0,0,1-5.333,6.815.76.76,0,0,1-1.1,0,71.739,71.739,0,0,1-5.333-6.815H16.842ZM19.25,48.838H43.6l-5.232-6.31L24.88,46.979h0Zm32.68,0-3.9-9.5L39.8,42.052l5.626,6.786Z" transform="translate(26.444 344.705)"/>
    <path id="notification" class="cls-10" d="M89.96,36.772A7.205,7.205,0,0,1,87.735,33.8c-1.918-3.978-2.32-9.583-2.32-13.583,0-.017,0-.035,0-.052A13.1,13.1,0,0,0,77.541,8.275V5.147A5.2,5.2,0,0,0,72.3,0h-.434a5.2,5.2,0,0,0-5.242,5.147V8.275A13.1,13.1,0,0,0,58.75,20.218c0,4-.4,9.6-2.32,13.583A7.205,7.205,0,0,1,54.2,36.772a1.309,1.309,0,0,0-.737,1.5,1.4,1.4,0,0,0,1.385,1.058H64.973a7.113,7.113,0,0,0,14.218,0H89.313A1.4,1.4,0,0,0,90.7,38.269,1.309,1.309,0,0,0,89.96,36.772ZM69.385,5.147a2.461,2.461,0,0,1,2.48-2.436H72.3a2.461,2.461,0,0,1,2.48,2.436V7.4a13.637,13.637,0,0,0-5.395,0V5.147Zm2.7,38.348a4.318,4.318,0,0,1-4.347-4.168h8.695A4.318,4.318,0,0,1,72.082,43.5Zm5.56-6.88H58a14.117,14.117,0,0,0,.724-1.245c1.851-3.578,2.789-8.676,2.789-15.152a10.572,10.572,0,0,1,21.141,0c0,.017,0,.033,0,.05.005,6.45.944,11.53,2.789,15.1a14.128,14.128,0,0,0,.724,1.245Z" transform="translate(-16.434 600.793)"/>
    <g id="info" transform="translate(160.776 320.673)">
      <g id="Group_2" data-name="Group 2" transform="translate(-125.776 367.806)">
        <g id="Group_1" data-name="Group 1">
          <path id="Path_3" data-name="Path 3" class="cls-11" d="M31.008,0C19.547,0,10.224,7.794,10.224,17.375a15.853,15.853,0,0,0,5.514,11.786l-1.159,6.245a.639.639,0,0,0,.331.66.93.93,0,0,0,.478.129.948.948,0,0,0,.376-.077l6.7-2.9a24.067,24.067,0,0,0,8.544,1.532c11.46,0,20.784-7.794,20.784-17.375S42.468,0,31.008,0Zm0,33.382A22.128,22.128,0,0,1,22.8,31.838a.963.963,0,0,0-.727.01l-5.626,2.435.973-5.244a.615.615,0,0,0-.218-.579A14.671,14.671,0,0,1,11.86,17.375c0-8.826,8.59-16.007,19.148-16.007S50.156,8.548,50.156,17.375,41.566,33.382,31.008,33.382Z" transform="translate(-10.224 0)"/>
        </g>
      </g>
      <g id="Group_4" data-name="Group 4" transform="translate(-107.672 375.248)">
        <g id="Group_3" data-name="Group 3">
          <path id="Path_4" data-name="Path 4" class="cls-11" d="M206.907,70.708a2.463,2.463,0,1,0,2.115,2.438A2.3,2.3,0,0,0,206.907,70.708Zm0,3.955a1.532,1.532,0,1,1,1.316-1.517A1.429,1.429,0,0,1,206.907,74.663Z" transform="translate(-204.792 -70.708)"/>
        </g>
      </g>
      <g id="Group_6" data-name="Group 6" transform="translate(-108.892 380.903)">
        <g id="Group_5" data-name="Group 5">
          <path id="Path_5" data-name="Path 5" class="cls-11" d="M195.97,200.742H195.4V190.124a.589.589,0,0,0-.5-.648h-4.821a.589.589,0,0,0-.5.648v2.152a.589.589,0,0,0,.5.648h.572v7.819h-.572a.589.589,0,0,0-.5.648v2.152a.589.589,0,0,0,.5.648h5.895a.589.589,0,0,0,.5-.648V201.39A.589.589,0,0,0,195.97,200.742Zm-.5,2.152h-4.89v-.857h.572a.589.589,0,0,0,.5-.648v-9.114a.589.589,0,0,0-.5-.648h-.572v-.857h3.816V201.39a.589.589,0,0,0,.5.648h.572Z" transform="translate(-189.573 -189.476)"/>
        </g>
      </g>
    </g>
    <path id="main" class="cls-12" d="M41.272,21.113,21.237.211a.671.671,0,0,0-.977,0L.225,21.113a.743.743,0,0,0,0,1.02.671.671,0,0,0,.978,0l2.279-2.383V42.517a.706.706,0,0,0,.691.721H37.324a.706.706,0,0,0,.691-.721V19.749l2.279,2.378a.671.671,0,0,0,.977-.018.743.743,0,0,0,0-1ZM25.583,41.8H15.914V30.989a4.942,4.942,0,0,1,4.835-5.044,4.942,4.942,0,0,1,4.835,5.044h0Zm11.05,0H26.964V30.989A6.355,6.355,0,0,0,20.749,24.5a6.355,6.355,0,0,0-6.216,6.485V41.8H4.864V18.308L20.749,1.736,36.633,18.308Z" transform="translate(34.977 518)"/>
    <rect id="pp" class="cls-13" width="84" height="84" rx="42" transform="translate(13 13)"/>
    <text id="Berk_Duman" data-name="Berk Duman" class="cls-14" transform="translate(130 37)"><tspan x="0" y="27">Berk Duman</tspan></text>
    <g id="logout" transform="translate(38 1011.594)">
      <path id="Path_7" data-name="Path 7" class="cls-15" d="M291,208.008H278.332c-.552,0-1,.64-1,1.429s.448,1.429,1,1.429H291c.552,0,1-.64,1-1.429S291.556,208.008,291,208.008Zm0,0" transform="translate(-257 -188.132)"/>
      <path id="Path_8" data-name="Path 8" class="cls-15" d="M401.317,143.569a1.312,1.312,0,0,1-.928-.381,1.29,1.29,0,0,1,0-1.839l5.64-5.58-5.64-5.58a1.29,1.29,0,0,1,0-1.838,1.324,1.324,0,0,1,1.859,0l6.569,6.5a1.29,1.29,0,0,1,0,1.838l-6.569,6.5A1.312,1.312,0,0,1,401.317,143.569Zm0,0" transform="translate(-371 -114.162)"/>
      <path id="Path_9" data-name="Path 9" class="cls-15" d="M14.659,41.414a3.993,3.993,0,0,1-1.136-.16L2.5,37.795A3.5,3.5,0,0,1,0,34.513V3.459A3.566,3.566,0,0,1,3.665.008,4,4,0,0,1,4.8.169L15.828,3.628a3.5,3.5,0,0,1,2.5,3.281V37.964a3.566,3.566,0,0,1-3.665,3.451ZM3.665,2.6a.893.893,0,0,0-.916.863V34.513a.9.9,0,0,0,.636.831L14.36,38.788a1.053,1.053,0,0,0,.3.038.893.893,0,0,0,.916-.863V6.909a.9.9,0,0,0-.636-.831L3.963,2.634a1.052,1.052,0,0,0-.3-.038Zm0,0" transform="translate(0 -0.008)"/>
      <path id="Path_10" data-name="Path 10" class="cls-15" d="M45.867,12.082a1.084,1.084,0,0,1-1.029-1.132V4.159a1.809,1.809,0,0,0-1.714-1.887H27.7A1.084,1.084,0,0,1,26.668,1.14,1.084,1.084,0,0,1,27.7.008H43.124A3.978,3.978,0,0,1,46.9,4.159V10.95A1.084,1.084,0,0,1,45.867,12.082Zm0,0" transform="translate(-23.135 -0.008)"/>
      <path id="Path_11" data-name="Path 11" class="cls-15" d="M188.123,287.044H182.4a.922.922,0,1,1,0-1.819h5.719a1.671,1.671,0,0,0,1.787-1.516V278.25a1.087,1.087,0,0,1,2.145,0v5.458C192.055,285.548,190.292,287.044,188.123,287.044Zm0,0" transform="translate(-168.766 -246.909)"/>
    </g>
    <rect id="Rectangle_18" data-name="Rectangle 18" class="cls-16" width="110" height="85" rx="22" transform="translate(15 498)"/>
    <g id="Rectangle_8" data-name="Rectangle 8" class="cls-5" transform="translate(110 103)">
      <rect class="cls-22" width="360" height="977"/>
      <rect class="cls-23" x="0.5" y="0.5" width="359" height="976"/>
    </g>
    <text id="YOUR_SEAL_ID_1234098_9041849_1203948_47191278_1234098_9041849_1203948_47191278_1234098_9041849_1203948_47191278_1234098_9041849_1203948_47191278_" data-name="YOUR SEAL ID  #1234098 #9041849 #1203948 #47191278 #1234098 #9041849 #1203948 #47191278 #1234098 #9041849 #1203948 #47191278 #1234098 #9041849 #1203948 #47191278 " class="cls-17" transform="translate(130 135)"><tspan x="0" y="22">SEALS WHICH SEAL TO YOU</tspan><tspan class="cls-18"><tspan x="0" y="54"></tspan><tspan x="0" y="87">#1234098</tspan><tspan x="0" y="120">#9041849</tspan><tspan x="0" y="153">#1203948</tspan><tspan x="0" y="186">#4719127</tspan><tspan x="0" y="219">#1234098</tspan><tspan x="0" y="252">#9041849</tspan><tspan x="0" y="285">#1203948</tspan><tspan x="0" y="318">#4719127</tspan><tspan x="0" y="351">#1234098</tspan><tspan x="0" y="384">#9041849</tspan><tspan x="0" y="417">#1203948</tspan><tspan x="0" y="450">#4719127</tspan><tspan x="0" y="483">#1234098</tspan><tspan x="0" y="516">#9041849</tspan><tspan x="0" y="549">#1203948</tspan><tspan x="0" y="582">#4719127</tspan><tspan x="0" y="615"></tspan></tspan></text>
    <line id="Line_1" data-name="Line 1" class="cls-19" x2="276" transform="translate(125.5 172.5)"/>
    <rect id="Rectangle_19" data-name="Rectangle 19" class="cls-20" width="360" height="35" transform="translate(110 195)"/>
    <rect id="download_2_" data-name="download (2)" class="cls-21" width="700" height="283" transform="translate(593 196)"/>
    <text id="Project_Status" data-name="Project Status" class="cls-14" transform="translate(1438 135)"><tspan x="0" y="27">Project Status</tspan></text>
    <line id="Line_2" data-name="Line 2" class="cls-19" x2="428" transform="translate(1432.5 230.5)"/>
    <text id="DATE_STATUS_LOC_LOG" data-name="DATE            STATUS             LOC               LOG" class="cls-17" transform="translate(1435 196)"><tspan x="0" y="22" xml:space="preserve">DATE            STATUS             LOC               LOG</tspan></text>
  </g>
</svg>
